<mxfile host="Electron" agent="Mozilla/5.0 (Windows NT 10.0; Win64; x64) AppleWebKit/537.36 (KHTML, like Gecko) draw.io/24.7.17 Chrome/128.0.6613.36 Electron/32.0.1 Safari/537.36" version="24.7.17">
  <diagram id="prtHgNgQTEPvFCAcTncT" name="Page-1">
    <mxGraphModel dx="1036" dy="606" grid="1" gridSize="10" guides="1" tooltips="1" connect="1" arrows="1" fold="1" page="1" pageScale="1" pageWidth="827" pageHeight="1169" math="0" shadow="0">
      <root>
        <mxCell id="0" />
        <mxCell id="1" parent="0" />
        <mxCell id="RqfBfrFVOrgx133IJ6Qx-4" value="" style="edgeStyle=orthogonalEdgeStyle;rounded=0;orthogonalLoop=1;jettySize=auto;html=1;" edge="1" parent="1" source="RqfBfrFVOrgx133IJ6Qx-2" target="RqfBfrFVOrgx133IJ6Qx-3">
          <mxGeometry relative="1" as="geometry" />
        </mxCell>
        <mxCell id="RqfBfrFVOrgx133IJ6Qx-2" value="1 - 9&amp;nbsp;" style="ellipse;whiteSpace=wrap;html=1;aspect=fixed;" vertex="1" parent="1">
          <mxGeometry x="330" y="10" width="80" height="80" as="geometry" />
        </mxCell>
        <mxCell id="RqfBfrFVOrgx133IJ6Qx-6" value="" style="edgeStyle=orthogonalEdgeStyle;rounded=0;orthogonalLoop=1;jettySize=auto;html=1;" edge="1" parent="1" source="RqfBfrFVOrgx133IJ6Qx-3" target="RqfBfrFVOrgx133IJ6Qx-5">
          <mxGeometry relative="1" as="geometry" />
        </mxCell>
        <mxCell id="RqfBfrFVOrgx133IJ6Qx-9" value="" style="edgeStyle=orthogonalEdgeStyle;rounded=0;orthogonalLoop=1;jettySize=auto;html=1;" edge="1" parent="1" source="RqfBfrFVOrgx133IJ6Qx-3" target="RqfBfrFVOrgx133IJ6Qx-8">
          <mxGeometry relative="1" as="geometry" />
        </mxCell>
        <mxCell id="RqfBfrFVOrgx133IJ6Qx-3" value="10" style="ellipse;whiteSpace=wrap;html=1;" vertex="1" parent="1">
          <mxGeometry x="330" y="120" width="80" height="80" as="geometry" />
        </mxCell>
        <mxCell id="RqfBfrFVOrgx133IJ6Qx-12" value="" style="edgeStyle=orthogonalEdgeStyle;rounded=0;orthogonalLoop=1;jettySize=auto;html=1;" edge="1" parent="1" source="RqfBfrFVOrgx133IJ6Qx-5" target="RqfBfrFVOrgx133IJ6Qx-11">
          <mxGeometry relative="1" as="geometry" />
        </mxCell>
        <mxCell id="RqfBfrFVOrgx133IJ6Qx-5" value="11" style="ellipse;whiteSpace=wrap;html=1;" vertex="1" parent="1">
          <mxGeometry x="170" y="120" width="80" height="80" as="geometry" />
        </mxCell>
        <mxCell id="RqfBfrFVOrgx133IJ6Qx-7" value="TRUE" style="text;html=1;align=center;verticalAlign=middle;resizable=0;points=[];autosize=1;strokeColor=none;fillColor=none;" vertex="1" parent="1">
          <mxGeometry x="260" y="138" width="60" height="30" as="geometry" />
        </mxCell>
        <mxCell id="RqfBfrFVOrgx133IJ6Qx-16" value="" style="edgeStyle=orthogonalEdgeStyle;rounded=0;orthogonalLoop=1;jettySize=auto;html=1;" edge="1" parent="1" source="RqfBfrFVOrgx133IJ6Qx-8" target="RqfBfrFVOrgx133IJ6Qx-15">
          <mxGeometry relative="1" as="geometry">
            <Array as="points">
              <mxPoint x="500" y="200" />
            </Array>
          </mxGeometry>
        </mxCell>
        <mxCell id="RqfBfrFVOrgx133IJ6Qx-18" value="" style="edgeStyle=orthogonalEdgeStyle;rounded=0;orthogonalLoop=1;jettySize=auto;html=1;" edge="1" parent="1" source="RqfBfrFVOrgx133IJ6Qx-8" target="RqfBfrFVOrgx133IJ6Qx-17">
          <mxGeometry relative="1" as="geometry">
            <Array as="points">
              <mxPoint x="730" y="180" />
            </Array>
          </mxGeometry>
        </mxCell>
        <mxCell id="RqfBfrFVOrgx133IJ6Qx-8" value="13" style="ellipse;whiteSpace=wrap;html=1;" vertex="1" parent="1">
          <mxGeometry x="550" y="120" width="80" height="80" as="geometry" />
        </mxCell>
        <mxCell id="RqfBfrFVOrgx133IJ6Qx-10" value="FALSE" style="text;html=1;align=center;verticalAlign=middle;resizable=0;points=[];autosize=1;strokeColor=none;fillColor=none;" vertex="1" parent="1">
          <mxGeometry x="410" y="138" width="60" height="30" as="geometry" />
        </mxCell>
        <mxCell id="RqfBfrFVOrgx133IJ6Qx-14" value="" style="edgeStyle=orthogonalEdgeStyle;rounded=0;orthogonalLoop=1;jettySize=auto;html=1;" edge="1" parent="1" source="RqfBfrFVOrgx133IJ6Qx-11" target="RqfBfrFVOrgx133IJ6Qx-13">
          <mxGeometry relative="1" as="geometry">
            <Array as="points">
              <mxPoint x="210" y="545" />
            </Array>
          </mxGeometry>
        </mxCell>
        <mxCell id="RqfBfrFVOrgx133IJ6Qx-11" value="21" style="ellipse;whiteSpace=wrap;html=1;" vertex="1" parent="1">
          <mxGeometry x="170" y="330" width="80" height="80" as="geometry" />
        </mxCell>
        <mxCell id="RqfBfrFVOrgx133IJ6Qx-13" value="22 - 23" style="ellipse;whiteSpace=wrap;html=1;" vertex="1" parent="1">
          <mxGeometry x="330" y="505" width="80" height="80" as="geometry" />
        </mxCell>
        <mxCell id="RqfBfrFVOrgx133IJ6Qx-22" value="" style="edgeStyle=orthogonalEdgeStyle;rounded=0;orthogonalLoop=1;jettySize=auto;html=1;" edge="1" parent="1" source="RqfBfrFVOrgx133IJ6Qx-15" target="RqfBfrFVOrgx133IJ6Qx-21">
          <mxGeometry relative="1" as="geometry" />
        </mxCell>
        <mxCell id="RqfBfrFVOrgx133IJ6Qx-15" value="14" style="ellipse;whiteSpace=wrap;html=1;" vertex="1" parent="1">
          <mxGeometry x="460" y="210" width="80" height="80" as="geometry" />
        </mxCell>
        <mxCell id="RqfBfrFVOrgx133IJ6Qx-25" value="" style="edgeStyle=orthogonalEdgeStyle;rounded=0;orthogonalLoop=1;jettySize=auto;html=1;" edge="1" parent="1" source="RqfBfrFVOrgx133IJ6Qx-17" target="RqfBfrFVOrgx133IJ6Qx-24">
          <mxGeometry relative="1" as="geometry" />
        </mxCell>
        <mxCell id="RqfBfrFVOrgx133IJ6Qx-27" value="" style="edgeStyle=orthogonalEdgeStyle;rounded=0;orthogonalLoop=1;jettySize=auto;html=1;" edge="1" parent="1" source="RqfBfrFVOrgx133IJ6Qx-17" target="RqfBfrFVOrgx133IJ6Qx-26">
          <mxGeometry relative="1" as="geometry" />
        </mxCell>
        <mxCell id="RqfBfrFVOrgx133IJ6Qx-17" value="16" style="ellipse;whiteSpace=wrap;html=1;" vertex="1" parent="1">
          <mxGeometry x="690" y="210" width="80" height="80" as="geometry" />
        </mxCell>
        <mxCell id="RqfBfrFVOrgx133IJ6Qx-19" value="TRUE" style="text;html=1;align=center;verticalAlign=middle;resizable=0;points=[];autosize=1;strokeColor=none;fillColor=none;" vertex="1" parent="1">
          <mxGeometry x="500" y="178" width="60" height="30" as="geometry" />
        </mxCell>
        <mxCell id="RqfBfrFVOrgx133IJ6Qx-20" value="FALSE" style="text;html=1;align=center;verticalAlign=middle;resizable=0;points=[];autosize=1;strokeColor=none;fillColor=none;" vertex="1" parent="1">
          <mxGeometry x="650" y="158" width="60" height="30" as="geometry" />
        </mxCell>
        <mxCell id="RqfBfrFVOrgx133IJ6Qx-21" value="20" style="ellipse;whiteSpace=wrap;html=1;" vertex="1" parent="1">
          <mxGeometry x="460" y="370" width="80" height="80" as="geometry" />
        </mxCell>
        <mxCell id="RqfBfrFVOrgx133IJ6Qx-23" style="edgeStyle=orthogonalEdgeStyle;rounded=0;orthogonalLoop=1;jettySize=auto;html=1;entryX=0.985;entryY=0.708;entryDx=0;entryDy=0;entryPerimeter=0;" edge="1" parent="1" source="RqfBfrFVOrgx133IJ6Qx-21" target="RqfBfrFVOrgx133IJ6Qx-11">
          <mxGeometry relative="1" as="geometry">
            <Array as="points">
              <mxPoint x="249" y="387" />
              <mxPoint x="249" y="387" />
            </Array>
          </mxGeometry>
        </mxCell>
        <mxCell id="RqfBfrFVOrgx133IJ6Qx-31" value="" style="edgeStyle=orthogonalEdgeStyle;rounded=0;orthogonalLoop=1;jettySize=auto;html=1;" edge="1" parent="1" source="RqfBfrFVOrgx133IJ6Qx-24" target="RqfBfrFVOrgx133IJ6Qx-30">
          <mxGeometry relative="1" as="geometry">
            <Array as="points">
              <mxPoint x="640" y="360" />
              <mxPoint x="710" y="360" />
            </Array>
          </mxGeometry>
        </mxCell>
        <mxCell id="RqfBfrFVOrgx133IJ6Qx-24" value="17" style="ellipse;whiteSpace=wrap;html=1;" vertex="1" parent="1">
          <mxGeometry x="600" y="260" width="80" height="80" as="geometry" />
        </mxCell>
        <mxCell id="RqfBfrFVOrgx133IJ6Qx-32" style="edgeStyle=orthogonalEdgeStyle;rounded=0;orthogonalLoop=1;jettySize=auto;html=1;entryX=1;entryY=0;entryDx=0;entryDy=0;" edge="1" parent="1" source="RqfBfrFVOrgx133IJ6Qx-26" target="RqfBfrFVOrgx133IJ6Qx-30">
          <mxGeometry relative="1" as="geometry" />
        </mxCell>
        <mxCell id="RqfBfrFVOrgx133IJ6Qx-26" value="18" style="ellipse;whiteSpace=wrap;html=1;" vertex="1" parent="1">
          <mxGeometry x="780" y="270" width="80" height="80" as="geometry" />
        </mxCell>
        <mxCell id="RqfBfrFVOrgx133IJ6Qx-28" value="TRUE" style="text;html=1;align=center;verticalAlign=middle;resizable=0;points=[];autosize=1;strokeColor=none;fillColor=none;" vertex="1" parent="1">
          <mxGeometry x="640" y="228" width="60" height="30" as="geometry" />
        </mxCell>
        <mxCell id="RqfBfrFVOrgx133IJ6Qx-29" value="FALSE" style="text;html=1;align=center;verticalAlign=middle;resizable=0;points=[];autosize=1;strokeColor=none;fillColor=none;" vertex="1" parent="1">
          <mxGeometry x="770" y="228" width="60" height="30" as="geometry" />
        </mxCell>
        <mxCell id="RqfBfrFVOrgx133IJ6Qx-33" style="edgeStyle=orthogonalEdgeStyle;rounded=0;orthogonalLoop=1;jettySize=auto;html=1;exitX=0;exitY=0.5;exitDx=0;exitDy=0;entryX=1;entryY=0.5;entryDx=0;entryDy=0;" edge="1" parent="1" source="RqfBfrFVOrgx133IJ6Qx-30" target="RqfBfrFVOrgx133IJ6Qx-21">
          <mxGeometry relative="1" as="geometry" />
        </mxCell>
        <mxCell id="RqfBfrFVOrgx133IJ6Qx-30" value="19" style="ellipse;whiteSpace=wrap;html=1;" vertex="1" parent="1">
          <mxGeometry x="700" y="370" width="80" height="80" as="geometry" />
        </mxCell>
      </root>
    </mxGraphModel>
  </diagram>
</mxfile>
